<mxfile host="app.diagrams.net" modified="2023-04-03T22:10:48.477Z" agent="Mozilla/5.0 (Windows NT 10.0; Win64; x64) AppleWebKit/537.36 (KHTML, like Gecko) Chrome/111.0.0.0 Safari/537.36" etag="yS4k7xCAkCifNFsykY0w" version="21.1.2" type="device">
  <diagram id="kteMv3e_wy0q_2Xv5gED" name="Page-1">
    <mxGraphModel dx="882" dy="596" grid="1" gridSize="10" guides="1" tooltips="1" connect="1" arrows="1" fold="1" page="1" pageScale="1" pageWidth="850" pageHeight="1100" math="0" shadow="0">
      <root>
        <mxCell id="0" />
        <mxCell id="1" parent="0" />
        <mxCell id="jBEKDHHSdpzh8Pjyz_dg-6" style="edgeStyle=orthogonalEdgeStyle;rounded=0;orthogonalLoop=1;jettySize=auto;html=1;exitX=1;exitY=0.5;exitDx=0;exitDy=0;entryX=0;entryY=0.5;entryDx=0;entryDy=0;" parent="1" source="jBEKDHHSdpzh8Pjyz_dg-1" target="jBEKDHHSdpzh8Pjyz_dg-2" edge="1">
          <mxGeometry relative="1" as="geometry" />
        </mxCell>
        <mxCell id="jBEKDHHSdpzh8Pjyz_dg-1" value="User" style="rounded=1;whiteSpace=wrap;html=1;" parent="1" vertex="1">
          <mxGeometry x="80" y="160" width="120" height="60" as="geometry" />
        </mxCell>
        <mxCell id="jBEKDHHSdpzh8Pjyz_dg-4" style="edgeStyle=orthogonalEdgeStyle;rounded=0;orthogonalLoop=1;jettySize=auto;html=1;exitX=0.5;exitY=1;exitDx=0;exitDy=0;entryX=0.5;entryY=0;entryDx=0;entryDy=0;" parent="1" source="jBEKDHHSdpzh8Pjyz_dg-2" target="jBEKDHHSdpzh8Pjyz_dg-3" edge="1">
          <mxGeometry relative="1" as="geometry" />
        </mxCell>
        <mxCell id="jBEKDHHSdpzh8Pjyz_dg-15" style="edgeStyle=orthogonalEdgeStyle;rounded=0;orthogonalLoop=1;jettySize=auto;html=1;exitX=1;exitY=0.25;exitDx=0;exitDy=0;entryX=0;entryY=0.5;entryDx=0;entryDy=0;" parent="1" source="jBEKDHHSdpzh8Pjyz_dg-2" target="jBEKDHHSdpzh8Pjyz_dg-8" edge="1">
          <mxGeometry relative="1" as="geometry" />
        </mxCell>
        <mxCell id="jBEKDHHSdpzh8Pjyz_dg-2" value="Load Balancer" style="rounded=1;whiteSpace=wrap;html=1;" parent="1" vertex="1">
          <mxGeometry x="280" y="160" width="120" height="60" as="geometry" />
        </mxCell>
        <mxCell id="jBEKDHHSdpzh8Pjyz_dg-3" value="CDN" style="rounded=1;whiteSpace=wrap;html=1;" parent="1" vertex="1">
          <mxGeometry x="280" y="320" width="120" height="60" as="geometry" />
        </mxCell>
        <mxCell id="jBEKDHHSdpzh8Pjyz_dg-31" style="edgeStyle=orthogonalEdgeStyle;rounded=0;orthogonalLoop=1;jettySize=auto;html=1;exitX=0;exitY=0.5;exitDx=0;exitDy=0;entryX=1;entryY=0.75;entryDx=0;entryDy=0;" parent="1" source="jBEKDHHSdpzh8Pjyz_dg-7" target="jBEKDHHSdpzh8Pjyz_dg-2" edge="1">
          <mxGeometry relative="1" as="geometry" />
        </mxCell>
        <mxCell id="4d5B0bHp6rCL2p5C0e26-5" style="edgeStyle=orthogonalEdgeStyle;rounded=0;orthogonalLoop=1;jettySize=auto;html=1;exitX=1;exitY=0.5;exitDx=0;exitDy=0;entryX=0;entryY=0.5;entryDx=0;entryDy=0;" edge="1" parent="1" source="jBEKDHHSdpzh8Pjyz_dg-7" target="4d5B0bHp6rCL2p5C0e26-1">
          <mxGeometry relative="1" as="geometry" />
        </mxCell>
        <mxCell id="4d5B0bHp6rCL2p5C0e26-6" style="edgeStyle=orthogonalEdgeStyle;rounded=0;orthogonalLoop=1;jettySize=auto;html=1;exitX=0.5;exitY=1;exitDx=0;exitDy=0;entryX=0;entryY=0.5;entryDx=0;entryDy=0;" edge="1" parent="1" source="jBEKDHHSdpzh8Pjyz_dg-7" target="4d5B0bHp6rCL2p5C0e26-2">
          <mxGeometry relative="1" as="geometry" />
        </mxCell>
        <mxCell id="jBEKDHHSdpzh8Pjyz_dg-7" value="App server (Read)" style="rounded=1;whiteSpace=wrap;html=1;" parent="1" vertex="1">
          <mxGeometry x="480" y="320" width="120" height="60" as="geometry" />
        </mxCell>
        <mxCell id="4d5B0bHp6rCL2p5C0e26-8" style="edgeStyle=orthogonalEdgeStyle;rounded=0;orthogonalLoop=1;jettySize=auto;html=1;exitX=0.5;exitY=1;exitDx=0;exitDy=0;entryX=0;entryY=0.5;entryDx=0;entryDy=0;" edge="1" parent="1" source="jBEKDHHSdpzh8Pjyz_dg-8" target="jBEKDHHSdpzh8Pjyz_dg-10">
          <mxGeometry relative="1" as="geometry" />
        </mxCell>
        <mxCell id="4d5B0bHp6rCL2p5C0e26-10" style="edgeStyle=orthogonalEdgeStyle;rounded=0;orthogonalLoop=1;jettySize=auto;html=1;exitX=1;exitY=0.5;exitDx=0;exitDy=0;entryX=0;entryY=0.5;entryDx=0;entryDy=0;" edge="1" parent="1" source="jBEKDHHSdpzh8Pjyz_dg-8" target="jBEKDHHSdpzh8Pjyz_dg-9">
          <mxGeometry relative="1" as="geometry" />
        </mxCell>
        <mxCell id="jBEKDHHSdpzh8Pjyz_dg-8" value="App server (Write)" style="rounded=1;whiteSpace=wrap;html=1;" parent="1" vertex="1">
          <mxGeometry x="480" y="80" width="120" height="60" as="geometry" />
        </mxCell>
        <mxCell id="jBEKDHHSdpzh8Pjyz_dg-9" value="Blob storage" style="rounded=1;whiteSpace=wrap;html=1;" parent="1" vertex="1">
          <mxGeometry x="680" y="80" width="120" height="60" as="geometry" />
        </mxCell>
        <mxCell id="4d5B0bHp6rCL2p5C0e26-3" style="edgeStyle=orthogonalEdgeStyle;rounded=0;orthogonalLoop=1;jettySize=auto;html=1;exitX=0.5;exitY=1;exitDx=0;exitDy=0;entryX=0.5;entryY=0;entryDx=0;entryDy=0;" edge="1" parent="1" source="jBEKDHHSdpzh8Pjyz_dg-10" target="4d5B0bHp6rCL2p5C0e26-1">
          <mxGeometry relative="1" as="geometry" />
        </mxCell>
        <mxCell id="4d5B0bHp6rCL2p5C0e26-9" style="edgeStyle=orthogonalEdgeStyle;rounded=0;orthogonalLoop=1;jettySize=auto;html=1;exitX=0.5;exitY=0;exitDx=0;exitDy=0;entryX=0.5;entryY=1;entryDx=0;entryDy=0;" edge="1" parent="1" source="jBEKDHHSdpzh8Pjyz_dg-10" target="jBEKDHHSdpzh8Pjyz_dg-9">
          <mxGeometry relative="1" as="geometry" />
        </mxCell>
        <mxCell id="jBEKDHHSdpzh8Pjyz_dg-10" value="Relational DB" style="rounded=1;whiteSpace=wrap;html=1;" parent="1" vertex="1">
          <mxGeometry x="680" y="200" width="120" height="60" as="geometry" />
        </mxCell>
        <mxCell id="4d5B0bHp6rCL2p5C0e26-1" value="Cache" style="rounded=1;whiteSpace=wrap;html=1;" vertex="1" parent="1">
          <mxGeometry x="680" y="320" width="120" height="60" as="geometry" />
        </mxCell>
        <mxCell id="4d5B0bHp6rCL2p5C0e26-4" style="edgeStyle=orthogonalEdgeStyle;rounded=0;orthogonalLoop=1;jettySize=auto;html=1;exitX=0.5;exitY=0;exitDx=0;exitDy=0;entryX=0.5;entryY=1;entryDx=0;entryDy=0;" edge="1" parent="1" source="4d5B0bHp6rCL2p5C0e26-2" target="4d5B0bHp6rCL2p5C0e26-1">
          <mxGeometry relative="1" as="geometry" />
        </mxCell>
        <mxCell id="4d5B0bHp6rCL2p5C0e26-7" style="edgeStyle=orthogonalEdgeStyle;rounded=0;orthogonalLoop=1;jettySize=auto;html=1;exitX=1;exitY=0.5;exitDx=0;exitDy=0;entryX=1;entryY=0.5;entryDx=0;entryDy=0;" edge="1" parent="1" source="4d5B0bHp6rCL2p5C0e26-2" target="jBEKDHHSdpzh8Pjyz_dg-10">
          <mxGeometry relative="1" as="geometry" />
        </mxCell>
        <mxCell id="4d5B0bHp6rCL2p5C0e26-2" value="Timeline generation service" style="rounded=1;whiteSpace=wrap;html=1;" vertex="1" parent="1">
          <mxGeometry x="680" y="440" width="120" height="60" as="geometry" />
        </mxCell>
      </root>
    </mxGraphModel>
  </diagram>
</mxfile>
